<?xml version="1.0" encoding="UTF-8" standalone="no"?>
<!-- Created with Inkscape (http://www.inkscape.org/) -->

<svg
   version="1.1"
   id="svg2"
   xml:space="preserve"
   width="158.49333"
   height="191.62666"
   viewBox="0 0 158.49333 191.62666"
   sodipodi:docname="3304_aoyama_uni.eps"
   xmlns:inkscape="http://www.inkscape.org/namespaces/inkscape"
   xmlns:sodipodi="http://sodipodi.sourceforge.net/DTD/sodipodi-0.dtd"
   xmlns="http://www.w3.org/2000/svg"
   xmlns:svg="http://www.w3.org/2000/svg"><defs
     id="defs6" /><sodipodi:namedview
     id="namedview4"
     pagecolor="#ffffff"
     bordercolor="#666666"
     borderopacity="1.0"
     inkscape:pageshadow="2"
     inkscape:pageopacity="0.0"
     inkscape:pagecheckerboard="0" /><g
     id="g8"
     inkscape:groupmode="layer"
     inkscape:label="ink_ext_XXXXXX"
     transform="matrix(1.3333333,0,0,-1.3333333,0,191.62667)"><g
       id="g10"
       transform="scale(0.1)"><path
         d="m 1116.38,872.574 -140.497,46.203 c -21.844,-9.386 -30.762,-16.226 -50.086,-24.394 20.301,-12.145 38.191,-29.012 47.051,-53.692 4.402,-11.89 8.3,-28.679 8.3,-46.562 0,-31.481 -19.628,-72.379 -51.074,-91.75 -1.457,-1.063 -0.644,-2.918 0.899,-3.691 L 1050.76,659.5 C 1023.17,589.898 989.957,521.961 951.039,455.777 821.117,234.801 665.641,101.738 594.441,48.1797 523.035,101.738 367.598,234.801 237.816,455.777 198.688,522.066 165.434,590.105 137.688,659.813 l 16.906,5.781 c -3.871,8.933 -9.219,23.054 -9.219,32.246 0,8.125 1.457,21.238 4.605,29.246 10.762,28.566 32.895,43.652 50.055,50.898 11.61,4.817 26.094,9.508 36.695,11.047 l 5.504,70.594 c -7.847,-0.645 -20.476,-4.371 -24.191,-5.824 -12.305,-5.305 -20.195,-8.86 -25.504,-12.582 l -7.601,-4 c -12.579,-4.742 -24.883,8.125 -21.086,25.726 -18.387,-0.609 -27.872,10.723 -17.797,32.731 L 72.5469,870.953 C 49.9375,972.988 38.4063,1078.42 38.6445,1187.45 c 205.1955,-27.63 410.2465,44.46 555.7965,195.57 145.485,-151.11 350.36,-223.2 555.719,-195.57 0.09,-108.55 -11.37,-213.411 -33.78,-314.876 m 71.97,359.496 -22.9,-5.01 c -206.325,-34.79 -414.712,38.19 -557.399,195.08 l -13.61,15.01 -13.675,-15.01 C 438.043,1265.25 229.57,1192.27 23.2734,1227.06 l -22.824181,5.01 -0.316406,-21.56 C -3.42578,933.945 66.5234,672.801 205.293,437.09 345.723,198.191 516.531,56.5898 583.406,7.92969 L 594.441,0 605.281,7.92969 C 672.211,56.5898 843.023,198.191 983.441,437.09 1122.06,672.801 1192.17,933.945 1188.6,1210.51 l -0.25,21.56"
         style="fill:#1c3620;fill-opacity:1;fill-rule:nonzero;stroke:none"
         id="path12" /><path
         d="m 713.227,523.152 c 10.441,0 19.023,8.536 19.023,19.051 0,10.52 -8.582,19.082 -19.023,19.082 -10.606,0 -19.09,-8.562 -19.09,-19.082 0,-10.515 8.484,-19.051 19.09,-19.051"
         style="fill:#1c3620;fill-opacity:1;fill-rule:nonzero;stroke:none"
         id="path14" /><path
         d="m 876.754,432.809 c -7.922,0 -14.531,-6.68 -14.531,-14.688 0,-8.133 6.609,-14.68 14.531,-14.68 8.184,0 14.687,6.547 14.687,14.68 0,8.008 -6.503,14.688 -14.687,14.688"
         style="fill:#1c3620;fill-opacity:1;fill-rule:nonzero;stroke:none"
         id="path16" /><path
         d="m 461.098,421.602 -17.071,-12.993 c 0,0 -4.371,-1.371 -7.922,0.571 -5.347,2.949 -15.632,10.359 -26.863,16.949 v 60.891 h 51.856 z m 60.816,-2.192 c -5.469,-3.851 -5.309,-3.93 -8.258,-1.129 -1.793,1.539 -7.051,5.469 -9.426,7.528 v 120.515 c 1.047,1.34 2.11,1.621 2.997,1.211 3.961,-1.648 8.121,-2.539 10.761,0.5 1.938,2.383 5.657,5.828 8.887,9.949 3.164,4.121 1.543,5.45 -3.871,7.227 -4.941,1.711 -24.121,8.262 -37.469,15.754 -13.14,7.558 -15.695,9.14 -17.808,10.762 -2.223,1.57 -4.52,0.769 -7.039,-1.789 -2.504,-2.43 -17.153,-16.786 -18.848,-18.485 -1.543,-1.691 -2.43,-6.504 2.68,-6.242 1.21,0.09 3.152,-0.957 5.828,-1.492 7.285,-1.653 9.773,-3.887 10.75,-5.781 v -59.875 h -51.856 l -0.086,74.804 c 0,3.078 -2.554,6.27 -5.828,6.27 -3.195,0 -5.5,-3.36 -5.5,-6.551 l 0.156,-140.637 c -4.367,2.031 -7.847,2.879 -11.683,3.93 -3.363,1.141 -8.215,2.098 -13.078,2.398 l -1.618,106.192 c 0.286,1.613 -0.652,12.656 -0.652,12.656 -2.668,13.223 -9.422,23.547 -22.402,29.336 -18.207,8.203 -35.684,4.258 -49.117,-4.656 -6.231,-4.2 -4.653,-1.817 -21.602,-16.856 0,0 -3.23,-9.113 3.555,-4.816 8.496,5.332 13.109,7.226 15.297,7.851 3.476,0.918 12.629,4.387 24.425,-0.449 11.899,-4.734 14.012,-27.793 14.012,-27.793 V 432.359 c -1.543,-0.847 -3.164,-1.738 -4.457,-2.75 -22.367,-16.218 -24.195,-39.148 -18.367,-57.531 5.949,-18.25 25.492,-30.707 39.82,-34.547 9.703,-2.59 11.481,0.848 8.082,2.789 -2.058,1.258 -12.344,4.489 -18.273,9.18 -9.629,7.57 -19.188,23.879 -10.446,41.031 11.899,23.43 36.094,17.84 55.743,4.891 5.113,-3.512 13.875,-8.57 17.527,-11.133 7.645,-5.16 13.379,-5.16 21.281,0 9.258,6.492 33.969,25.09 33.969,25.09 2.395,1.793 3.852,-0.231 5.43,-1.899 2.715,-3.031 9.675,-9.218 14.281,-13.468 6.187,-5.91 12.629,-7.813 22.977,-0.442 17.152,12.328 23.175,15.578 27.523,20.961 4.32,5.328 1.012,11.559 -8.297,4.879"
         style="fill:#1c3620;fill-opacity:1;fill-rule:nonzero;stroke:none"
         id="path18" /><path
         d="m 671.645,419.34 c -5.02,-2.231 -5.02,-2.559 -6.805,-3.41 -1.692,-0.961 -6.184,4.871 -6.184,4.871 l 0.196,69.129 c 0,0 1.418,0.605 1.906,2.793 0.281,2.254 0.437,3.359 -2.422,4.656 -5.879,2.668 -19.375,15.371 -25.168,22.043 -4.402,5.058 -11.297,0.644 -12.82,-1.817 -3.45,-5.058 -22.743,-17.558 -32.618,-21.691 -1.21,-0.437 -1.851,0.5 -1.851,0.5 0,0 -15.945,21.152 -17.563,22.527 -1.461,1.582 -5.742,1.497 -8.652,-1.336 0,0 -16.027,-13.554 -20.445,-17.199 -1.012,-0.613 -3.426,-1.738 -3.426,-2.636 -0.18,-2.579 4.848,-5.176 4.848,-5.176 0,0 4.773,0 6.949,1.144 4.617,2.02 9.281,-4.531 9.281,-10.734 V 420.84 c -2.805,-5.512 -4.937,-8.641 -2.394,-10.852 1.617,-1.5 10.027,-2.668 17.554,-8.09 7.328,-4.976 12.946,-9.668 12.946,-9.668 0,0 5.992,-5.308 11.121,-1.769 5.703,4.07 18.175,13.66 20.273,15.199 0.442,0.27 3.477,10.11 -4.246,5.899 -0.598,-0.309 -1.457,-0.719 -2.551,-1.329 -4.687,-3.359 -6.707,-1.449 -9.429,-0.32 -5.86,2.539 -8.86,4.36 -11.528,8.09 v 67.602 l 11.172,6.269 c 0,0 6.875,3.848 12.5,5.625 5.871,1.973 8.535,-1.062 8.535,-1.062 l 6.602,-6.856 v -70.797 c -2.996,-3.011 -5.555,-8.679 5.742,-11.66 11.406,-3.043 15.656,-8.711 15.656,-8.711 0,0 7.188,-7.879 12.371,-1.09 5.098,6.801 16.672,17.078 16.672,17.078 0,0 3.563,9.063 -6.222,4.942"
         style="fill:#1c3620;fill-opacity:1;fill-rule:nonzero;stroke:none"
         id="path20" /><path
         d="m 738.07,415.109 c -0.808,0.582 -8.34,4.301 -8.66,6.903 v 69.09 c 0,3.074 1.453,3.679 2.274,4.246 3.476,2.394 4.687,3.976 -1.094,8.613 l -13.399,10.84 c -3.484,3.164 -7.644,3 -10.593,0 L 691.91,499.598 c -2.539,-1.457 -3.762,-4.055 1.082,-5.254 1.067,-0.324 4.571,-1.582 4.426,-3.809 v -68.523 c 0,-2.032 -3.32,-4.461 -5.703,-6.242 -5.11,-3.59 -0.422,-6.231 1.277,-7.25 5.508,-3.508 17.238,-13.25 18.496,-14.508 4.688,-4.66 6.555,-2.524 10.117,1.078 3.606,4.012 8.125,9.148 13.75,12.988 6.028,4.211 4.747,6 2.715,7.031"
         style="fill:#1c3620;fill-opacity:1;fill-rule:nonzero;stroke:none"
         id="path22" /><path
         d="m 856.93,426.852 v 62.961 l 2.508,4.128 c 0,0 6.191,5.5 0.695,8.77 -7.414,4.289 -18.176,14.043 -19.707,16.144 -2.715,4.012 -9.18,4.774 -13.516,-0.449 -3.801,-4.531 -17.14,-16.906 -17.715,-17.597 -2.109,-1.946 -3.156,-7.727 2.508,-6.465 2.141,0.437 6.485,2.176 8.262,3.066 0.801,0.332 2.023,0.606 2.91,-0.48 l 3.359,-4.297 0.196,-78.973 c 0,0 -3.641,-7.308 -10.039,-0.89 -5.789,5.832 -14.52,10.242 -16.59,12.3 0,0 -0.313,62.477 -0.801,70.844 -0.742,9.063 -1.621,17.16 -12.297,24.199 -15.82,10.196 -13.348,17.11 0.078,26.145 14.817,10.066 23.43,18.691 21.524,29.805 -2.586,14.285 -2.676,13.964 -3.153,17.363 -0.5,3.144 -4.816,7.273 -5.351,-2.922 -0.547,-10.234 -0.801,-11.121 -16.66,-22.254 -15.782,-11.125 -36.536,-18.312 -20.305,-42.559 5.332,-8.125 4.816,-14.445 4.816,-14.445 v -89.644 c 0,0 -5.754,-7.403 2.383,-9.993 7.879,-2.429 13.192,-4.488 23.145,-10.039 9.785,-5.629 13.183,-8.82 14.707,-10.398 1.562,-1.524 6.726,-2.742 10.301,0.887 3.71,3.531 13.253,11.711 16.574,14.211 5.019,3.441 23.465,15.89 23.465,15.89 0,0 2.668,2.031 1.132,3.649 -0.41,0.39 -0.886,0.48 -2.429,1.043"
         style="fill:#1c3620;fill-opacity:1;fill-rule:nonzero;stroke:none"
         id="path24" /><path
         d="M 350.66,962.305 457.898,832.398 c 18.098,17.075 52.723,2.184 38.196,-31.023 0,0 -9.985,-19.824 -11.528,-23.105 -1.621,-3.278 -1.621,-4.411 3.161,-2.75 5.093,1.695 106.714,34.546 106.714,34.546 l 91.2,-30.144 c -43.059,85.973 -4.297,179.996 50.73,215.84 L 594.441,1043.42 350.66,962.305"
         style="fill:#1c3620;fill-opacity:1;fill-rule:nonzero;stroke:none"
         id="path26" /><path
         d="m 938.09,933.945 c -3.309,-1.453 -47.891,-22.004 -60.86,-28.074 -1.972,-0.851 -2.734,0.238 -2.128,2.586 0.605,2.344 5.793,18.289 7.394,23.547 2.676,9.305 -10.969,13.148 -14.445,3.07 -2.137,-6.429 -12.813,-39.398 -12.813,-39.398 0,0 -18.457,-8.496 -19.91,-9.231 -1.047,-0.519 -2.5,0.368 -1.816,2.961 0.84,2.547 21.289,65.457 21.289,65.457 l 30.137,9.992 c 10.339,-18.89 38.144,-27.914 54.531,-27.23 2.176,0.086 2.031,-2.223 -1.379,-3.68 m -30.516,-79.906 c 4.051,-6.43 8.719,-20.746 10.938,-31.473 -8.254,-5.214 -20.879,-10.722 -34.063,-7.886 -18.176,3.925 -27.433,15.898 -31.73,23.504 0,0 13.879,44.179 14.894,47.136 0.86,1.7 1.309,1.86 3.914,0.684 2.727,-1.297 19.629,-7.16 36.047,-31.965 m 11.649,-48.828 c 0.625,-17.231 -2.93,-34.063 -14.512,-50.289 -1.699,-2.219 -3.035,-3.758 -4.492,0.047 -2.664,6.918 -9.258,19.617 -23.875,26.777 -12.043,5.867 -25.442,7.039 -36.641,3.801 -3.644,-1.332 -4.465,-0.645 -3.398,2.391 0.515,2.386 6.875,22.449 9.707,31.355 0.808,2.266 1.453,4.164 4.043,0.812 4.05,-5.425 10.691,-11.656 24.922,-16.386 19.043,-6.434 31.511,-1.867 41.836,3.351 1.777,1.258 2.41,-0.199 2.41,-1.859 m -48.7,-82.332 c -25,-12.742 -39.472,-12.215 -58.339,-10.074 l 18.046,56.683 c 7.852,2.672 14.317,6.965 29.325,4.86 21.34,-3.082 31.925,-27.11 33.312,-34.192 -5.754,-5.011 -14.621,-13.148 -22.344,-17.277 m 111.211,229.23 c -9.894,-2.992 -15.722,-6.472 -33.039,1.946 -10.605,5.136 -21.64,16.504 -25.742,27.347 -2.715,7.282 -5.574,9.993 -11.973,8.09 -11.367,-3.359 -127.929,-42.355 -135.203,-45.472 -7.199,-3.075 -4.289,-16.547 6.063,-13.067 10.488,3.481 10.078,2.668 18.937,5.781 8.993,3.079 8.993,2.711 7.286,-2.3 -1.458,-4.981 -24.922,-91.153 -40.372,-121.692 -10.363,-20.39 -20.878,-23.554 -23.918,-25.457 -3.035,-1.937 -5.058,-7.683 1.536,-6.191 8.464,1.949 23.925,8.504 39.285,18.535 23.097,15.012 30.429,33.824 30.429,33.824 l 11.243,33.176 23.066,10.801 -51.387,-161.461 c -18.691,5.336 -38.066,21.722 -47.082,34.789 -19.59,29.047 -40.457,76.625 -6.074,164.781 19.582,50.164 50.09,77.516 72.492,86.301 11.414,4.4 12.059,9.42 -2.949,7.92 -45.519,-4.32 -111.535,-43.287 -128.301,-122.74 -12.929,-61.54 18.934,-119.274 53.055,-149.043 34.387,-29.86 96.242,-55.508 163,-31.559 60.449,22.738 68.086,87.75 55.332,125.172 -12.773,38.359 -48.137,55.43 -69.492,60.848 l -1.699,1.945 c 0,0 96.043,45.062 102.968,48.543 6.875,3.359 2.539,12.383 -7.461,9.183"
         style="fill:#1c3620;fill-opacity:1;fill-rule:nonzero;stroke:none"
         id="path28" /><path
         d="m 277.832,850.762 7.77,96.211 60.074,-71.731 z m 195.895,-27.098 c -3.36,0 -6,-1.66 -7.532,-4.211 l -6.785,-14.89 -177.699,214.107 c -6.715,7.6 -7.606,5.62 -8,-0.82 l -2.594,-29.815 c -14.082,-3.68 -38.929,-12.215 -51.863,-20.027 -22.492,-13.672 -39.574,-29.289 -51.055,-50.938 -7.933,-15.125 -10.367,-27.101 -11.172,-32.882 v -0.735 c 0,-2.504 1.047,-4.324 3.641,-4.324 1.617,0 3.234,1.375 4.09,2.465 l 1.652,2.594 c 6.836,9.589 21.442,26.863 40.215,37.093 28.809,15.864 49.484,19.379 60.695,20.235 l -1.386,-14.203 c -4.762,-0.645 -13.832,-2.911 -29.7,-9.266 -16.019,-6.473 -31.668,-20.715 -40.535,-31.313 -6.961,-8.336 -14.39,-21.484 -17.636,-27.468 l -0.165,-0.411 c -0.242,-0.605 -0.492,-1.367 -0.492,-2.101 0,-2.547 2.028,-4.492 4.614,-4.492 1.066,0 3.765,1.945 4.621,2.633 5.949,4.242 17.32,11 32.773,16.746 12.859,4.859 30.82,7.449 41.758,7.285 l -8.063,-104.66 c -11.293,0.117 -23.339,-1.262 -42.031,-8.215 -27.351,-10.117 -65.469,-49.559 -39.445,-95.555 8.457,-14.922 27.23,-29.492 35.238,-33.789 9.145,-5.059 24.281,-10.117 24.281,-10.117 0.469,-0.149 1.036,-0.274 1.602,-0.274 2.594,0 4.742,1.973 4.742,4.442 0,1.828 -1.262,3.359 -2.879,4.082 0,0 -39.234,18.371 -47.902,41.562 -8.652,23.215 0.652,54.25 29.453,59.789 28.559,5.504 49.375,-4.406 57.211,-8.976 7.766,-4.531 22.5,-16.434 30.746,-21.367 4.531,-3.594 7.852,-4.121 10.195,0.652 l 30.391,57.523 c 0.769,1.055 1.164,2.235 1.164,3.485 0,3.926 -5.742,9.305 -9.902,9.305 -2.965,0 -6.836,-3.239 -8.047,-5.629 l -8.594,-15.532 c 0,0 -13.133,9.793 -36.484,15.414 -2.989,0.688 -7.977,1.539 -11.481,2.028 l 2.254,22.773 105.625,38.879 c 0,0 63.125,-76.75 65.742,-79.824 2.715,-2.992 7.617,-3.438 10.692,2.066 2.965,5.465 27.351,55.024 27.351,55.024 0.399,0.926 0.645,1.941 0.645,3.074 0,4.445 -5.258,8.578 -9.949,8.578"
         style="fill:#1c3620;fill-opacity:1;fill-rule:nonzero;stroke:none"
         id="path30" /></g></g></svg>
