<svg xmlns="http://www.w3.org/2000/svg" width="498.00101" height="101.04021" viewBox="0 0 498.00101 101.04021">
  <defs>
    <style>
      .a {
        fill: #fefefe;
      }

      .b {
        fill: #04a586;
      }

      .c {
        fill: #eef8f6;
      }

      .d {
        fill: #02a485;
      }

      .e {
        fill: #05a586;
      }

      .f {
        fill: #03a585;
      }

      .g {
        fill: #03a485;
      }

      .h {
        fill: #04a585;
      }

      .i {
        fill: #01a484;
      }

      .j {
        fill: #0aa788;
      }

      .k {
        fill: #07a687;
      }

      .l {
        fill: #08a687;
      }

      .m {
        fill: #0ba789;
      }

      .n {
        fill: #02a484;
      }

      .o {
        fill: #fcfdfd;
      }

      .p {
        fill: #fdfefd;
      }

      .q {
        fill: #fbfdfc;
      }

      .r {
        fill: #fbfdfd;
      }

      .s {
        fill: #f9fcfc;
      }

      .t {
        fill: #06a687;
      }

      .u {
        fill: #09a788;
      }

      .v {
        fill: #14aa8d;
      }

      .w {
        fill: #f8fcfb;
      }

      .x {
        fill: #f1f9f8;
      }

      .y {
        fill: #f5fbfa;
      }
    </style>
  </defs>
  <g>
    <path class="a" d="M42.00009,101.04021H0V0H498.001V29.28006l-.253.00525-4.094,0V54.57749q-7.90722-12.79674-15.6044-25.25357h-5.17246V60.74241c1.4171-.01953,2.79083.02091,4.23716-.02873v-25.149c2.73437,4.36764,5.33588,8.5293,7.94378,12.68694q3.91909,6.24816,7.83344,12.46669h4.8647l.24474.00183v40.32009H42.24009c.0382-.06418.06057-.15364.11688-.1889a58.38723,58.38723,0,0,0,8.89694-7.1136c2.00332-1.883,3.85342-3.9318,5.73-5.94568.946-1.01525,1.83768-2.08737,2.68508-3.18683,1.32609-1.72058,2.60475-3.47816,3.88389-5.23436A87.24367,87.24367,0,0,0,70.302,68.551c1.53253-2.92013,2.91814-5.91775,4.35151-8.88939a69.869,69.869,0,0,0,3.08171-7.7414c.83589-2.43913,1.61729-4.90059,2.31358-7.38282.591-2.107,1.097-4.24419,1.51072-6.393a61.55688,61.55688,0,0,0,1.02883-6.401c.15015-1.76172.46972-3.50843.64785-5.2685.13562-1.34.21577-2.68988.23479-4.03657a50.23073,50.23073,0,0,0-.25586-8.0492,43.33367,43.33367,0,0,1-22.38088-1.62564A43.47766,43.47766,0,0,1,42.03105.102c-.27955.2797-.4747.46614-.66012.66181A48.78485,48.78485,0,0,1,34.532,6.88736a43.11854,43.11854,0,0,1-8.74654,4.87044,43.71778,43.71778,0,0,1-8.17332,2.5172,46.62126,46.62126,0,0,1-6.07533.81762,54.48806,54.48806,0,0,1-5.5153.00646c-1.09624-.0395-2.18329-.32908-3.27967-.3714-.81021-.03128-1.5845-.48421-2.43893-.26054-.01333.22276-.03153.37794-.0306.533.0225,3.74537-.18428,7.49.16827,11.23651.16278,1.72981.24475,3.46612.50261,5.18911.2796,1.86822.4644,3.75125.77013,5.61476.2789,1.69993.60537,3.3968,1.01451,5.06968a108.002,108.002,0,0,0,3.53838,11.91,89.64485,89.64485,0,0,0,3.54,8.44746c1.00632,2.04606,2.099,4.0495,3.13538,6.081a70.622,70.622,0,0,0,3.72451,6.297,80.26022,80.26022,0,0,0,5.58428,7.80262c1.421,1.70493,2.73669,3.50926,4.26765,5.10811,2.28922,2.39075,4.70151,4.66615,7.10821,6.94115a51.79073,51.79073,0,0,0,6.67442,5.13692C40.87586,100.22343,41.43407,100.6376,42.00009,101.04021Zm192.531-71.74144V60.68584h3.9177c.05584-.08326.09611-.11526.0961-.14721q-.00906-12.53611-.02315-25.07222a1.43494,1.43494,0,0,1,.01352-.23914.21015.21015,0,0,1,.06891-.09514.28326.28326,0,0,1,.07291-.039c.759,2.17483,1.52952,4.346,2.27506,6.52563q2.99848,8.76628,5.9821,17.53767c.18583.54416.40371,1.07738.57853,1.541h4.18794a2.25121,2.25121,0,0,0,.26833-.42491q1.81116-5.33006,3.607-10.6653c1.30224-3.8927,2.5817-7.793,3.88172-11.68645.31931-.95629.67993-1.89876,1.05481-2.93995.1028.17141.14139.20572.14139.24q-.00428,12.476-.01336,24.95205c-.00009.11989.00187.24013.01177.35946a.2292.2292,0,0,0,.05743.09767c.02379.03195.05255.06022.099.11241,1.281-.02878,2.584.03295,3.861-.03622V29.30276h-6.06124c-2.96256,8.774-5.92457,17.54636-8.94494,26.49157-3.10084-8.898-6.01281-17.71868-9.047-26.49556Zm113.21018,9.56184c-.177-.70054-.3118-1.26917-.46468-1.83288A10.56233,10.56233,0,0,0,341.86,30.05361a16.69468,16.69468,0,0,0-5.51746-1.55335,15.17268,15.17268,0,0,0-4.8342.13487,13.25356,13.25356,0,0,0-8.68458,5.67414,18.90842,18.90842,0,0,0-3.09862,10.11913,21.76871,21.76871,0,0,0,.14672,3.56062,19.86932,19.86932,0,0,0,1.25362,5.36766,12.4,12.4,0,0,0,3.9734,5.489,13.75784,13.75784,0,0,0,7.9888,2.79881,23.16052,23.16052,0,0,0,3.07565-.20588,10.42532,10.42532,0,0,0,6.356-2.807c.59822-.57061,1.181-1.15742,1.835-1.79984.36949,1.36145.71528,2.63561,1.06122,3.91029a18.35477,18.35477,0,0,0,2.78552-.09032c.16061-5.95663.09331-15.672-.113-16.70067-3.61984-.16292-12.76455-.09348-13.7622.10967.0106,1.13562-.0523,2.27816.04456,3.49549h9.78087c0,.4382.02686.79679-.00724,1.1495-.03759.38855-.152.76926-.19717,1.15754-.46128,3.96319-2.356,6.26158-5.91578,7.48375a11.87041,11.87041,0,0,1-6.89559.13678,7.88679,7.88679,0,0,1-5.3009-4.3544,15.071,15.071,0,0,1-1.55028-5.6322,22.05756,22.05756,0,0,1,.41725-7.10294,10.69791,10.69791,0,0,1,3.9054-6.28515,9.64129,9.64129,0,0,1,6.19276-1.91126,12.86373,12.86373,0,0,1,2.78373.44635,7.68944,7.68944,0,0,1,3.77843,2.07486,7.92178,7.92178,0,0,1,1.84113,3.38719c.216.73.1929.74656.93853.75208C345.29684,38.8669,346.45234,38.86061,347.74131,38.86061ZM170.1561,44.33253a17.27563,17.27563,0,0,0-.96125-6.56922,13.28436,13.28436,0,0,0-5.22536-6.99968,16.12272,16.12272,0,0,0-8.15026-2.40715,19.33332,19.33332,0,0,0-4.95311.4148,12.82192,12.82192,0,0,0-7.65142,4.62178,17.481,17.481,0,0,0-3.72887,10.00144,21.75351,21.75351,0,0,0,.41228,6.39012,15.45836,15.45836,0,0,0,4.34691,8.21714,13.52907,13.52907,0,0,0,8.39084,3.62818,19.38313,19.38313,0,0,0,5.35356-.18,13.819,13.819,0,0,0,7.00884-3.4144,15.635,15.635,0,0,0,4.18965-6.63753A19.5018,19.5018,0,0,0,170.1561,44.33253Zm232.372-2.37068c1.42331-1.31807,2.7494-2.5241,4.05077-3.75624,2.14413-2.03007,4.26854-4.081,6.40947-6.11444.66284-.62951,1.35818-1.22469,2.02723-1.84782.29233-.27226.556-.57527.91456-.94989h-6.0569c-.132.12148-.28169.25178-.42314.39048q-7.05763,6.92188-14.11444,13.84463c-.30082.295-.61011.58129-.92713.88272-.06226-.10665-.1-.14114-.10005-.17571q-.01385-7.37382-.0247-14.74764c-.00006-.03252-.034-.067-.057-.09689a.91284.91284,0,0,0-.071-.07635h-4.05124c-.17554,1.702-.13122,30.50783.051,31.423.66964,0,1.34772.01884,2.02424-.00521a7.88937,7.88937,0,0,0,2.13015-.10328V49.72732l5.05082-4.70482c3.78587,5.2998,7.49879,10.4975,11.19723,15.67489h5.66181C411.64431,54.43633,407.13373,48.2641,402.5281,41.96185ZM443.284,29.30493v1.23329c-.00006,6.0757-.01319,12.15145.00987,18.22707a14.94213,14.94213,0,0,1-.515,3.97749,6.36,6.36,0,0,1-4.2787,4.56532,10.48764,10.48764,0,0,1-5.723.32513,6.43466,6.43466,0,0,1-4.43022-3.22267,11.73279,11.73279,0,0,1-1.34432-5.7943c-.06788-6.07495-.02461-12.15113-.02464-18.22684V29.31687h-4.32566l0,1.21429c0,4.59675-.02118,9.19364.01,13.79018a45.99491,45.99491,0,0,0,.18079,5.95814,17.64188,17.64188,0,0,0,1.24313,5.24173,9.9959,9.9959,0,0,0,3.03528,3.86363,12.75552,12.75552,0,0,0,6.83778,2.25344,16.11652,16.11652,0,0,0,5.302-.45388,9.80936,9.80936,0,0,0,6.781-5.25528,15.27862,15.27862,0,0,0,1.51679-6.72546c.09448-6.31417.04365-12.63052.0503-18.946.00032-.307.00006-.614.00006-.95272ZM359.392,60.70938a5.239,5.239,0,0,0,.33938-.64282c.97093-2.6843,1.95076-5.36567,2.88056-8.06426.15753-.45725.32918-.65376.81592-.65207q5.578.01941,11.15607.00133a.688.688,0,0,1,.79.53661c.28887.93319.63067,1.85008.95478,2.77223.63528,1.80739,1.30551,3.60348,1.89024,5.427a.80188.80188,0,0,0,.93742.657c1.03913-.02314,2.07917-.0015,3.11871-.01092.25837-.00234.51627-.053.89957-.09518-.38277-.97523-.7471-1.83947-1.06383-2.72084q-2.71675-7.56043-5.41545-15.12736-1.9989-5.57731-4.01477-11.14852c-.291-.80091-.64975-1.57721-.96475-2.33465h-4.90378a3.22331,3.22331,0,0,1-.10195.46677c-1.73611,4.53012-3.49272,9.05246-5.21146,13.58915q-3.11814,8.23032-6.17866,16.4824a3.87614,3.87614,0,0,0-.11385.86411Zm-71.457-31.39379H282.9943c-3.9357,10.44507-7.86251,20.86654-11.81853,31.36561h4.45017c1.12969-3.12176,2.245-6.20372,3.365-9.29881h12.327c1.08642,3.10847,2.17869,6.23363,3.2538,9.30967h4.6668a1.80166,1.80166,0,0,0-.04406-.36708c-.98019-2.68118-1.976-5.35669-2.94531-8.04179-.78328-2.16988-1.51612-4.358-2.3055-6.52564-1.44518-3.96857-2.919-7.92672-4.37376-11.89182C289.01851,32.363,288.48671,30.85305,287.93493,29.31559Zm-179.78462,31.373h4.443l3.37955-9.29309h12.32465l3.261,9.29755h4.57829a7.39774,7.39774,0,0,0-.19866-.93243c-.2481-.70069-.53905-1.38611-.79348-2.08469-1.60519-4.40731-3.21654-8.81242-4.80378-13.2262-1.8106-5.03493-3.59819-10.07816-5.40028-15.13041h-4.97106Zm103.22625-31.4017c-3.93493,10.45268-7.85688,20.87092-11.81755,31.392h4.42324c1.2161-3.118,2.21483-6.28259,3.42305-9.27375h12.31q1.64173,4.71228,3.23488,9.28507h4.60372a5.02752,5.02752,0,0,0-.13663-.83376c-.60779-1.735-1.22038-3.46845-1.85434-5.194-1.82062-4.95555-3.66768-9.90144-5.4737-14.86229-1.16356-3.19611-2.2682-6.41365-3.41438-9.61617a5.99808,5.99808,0,0,0-.49941-.89713Zm-37.91423.03692a2.5473,2.5473,0,0,0,.18072.60075c1.18449,1.86144,2.389,3.71015,3.5728,5.572q3.77171,5.93178,7.53239,11.87055a2.57637,2.57637,0,0,1,.34332,1.4716c-.01371,3.63713-.00718,7.27432-.00716,10.9115,0,.30625,0,.61249,0,.98736.82932,0,1.54513.02042,2.25924-.00567a8.20846,8.20846,0,0,0,2.22311-.10932c0-3.98561.00655-7.90174-.00769-11.8178a2.55357,2.55357,0,0,1,.368-1.463c1.15156-1.78831,2.28919-3.58558,3.43565-5.37719q3.69418-5.773,7.38822-11.546c.2153-.33734.37793-.7083.59874-1.12766h-5.01411L187.33084,44.3265c-3.0983-5.10371-5.99962-10.14666-9.0124-15.00272ZM462.91026,60.70783V29.32251h-4.18882c-.19268,2.28569-.12337,30.533.07,31.38532ZM242.41831,68.66752l0,1.29822q0,7.433.00069,14.8661c.00057,1.50443-.27356,1.54718,1.5734,1.51663.11975-.002.27939.05489.35154-.00241a1.16474,1.16474,0,0,0,.42922-.49629,3.16883,3.16883,0,0,0,.01791-.8341q0-5.81457.00213-11.62914c.00025-.29184.0306-.58365.05376-.9966a4.6481,4.6481,0,0,1,.39939.4623c.99407,1.60452,1.97282,3.21858,2.974,4.81865,1.64927,2.63594,3.33015,5.25236,4.95391,7.90383a1.25993,1.25993,0,0,0,1.301.78427c.58407-.05291,1.17669-.01109,1.78952-.01109V68.64608c-.79764.00542-1.53724-.03893-2.33836.034V82.55987c-2.96318-4.79253-5.7838-9.35447-8.58954-13.89235Zm66.15921,10.05855c2.08369,0,4.0363-.01222,5.98859.00572a2.38447,2.38447,0,0,1,2.01273,1.07277,2.90984,2.90984,0,0,1,.464,1.67739,18.2232,18.2232,0,0,0,.382,4.657,12.61573,12.61573,0,0,0,2.93371-.05727,7.81094,7.81094,0,0,1-.67412-1.67959,19.03492,19.03492,0,0,1-.22746-3.31133,3.48394,3.48394,0,0,0-1.942-3.46818,18.17264,18.17264,0,0,0,1.62056-1.67441,4.79067,4.79067,0,0,0,.55307-3.21344,3.65059,3.65059,0,0,0-1.75644-3.16188,5.75241,5.75241,0,0,0-3.1198-.91231c-2.59791-.03568-5.1966-.01577-7.795-.01827-.3087-.0003-.6174,0-.95543,0v17.463h2.51555ZM337.13641,73.624c-.06985-.43725-.12032-.784-.18129-1.1289A4.155,4.155,0,0,0,335.29091,69.61a8.18278,8.18278,0,0,0-7.76835-.88468,4.26273,4.26273,0,0,0-1.9232,1.51026,5.42054,5.42054,0,0,0-1.11595,3.76763,3.5369,3.5369,0,0,0,1.576,2.87812,6.18271,6.18271,0,0,0,1.9205.86273c1.5463.41842,3.10495.791,4.65265,1.2044a3.19634,3.19634,0,0,1,2.17369,1.259,2.74173,2.74173,0,0,1-1.25541,3.95067,6.60185,6.60185,0,0,1-5.1683.08151,3.30293,3.30293,0,0,1-1.9873-2.33337c-.12782-.48465-.2293-.97623-.34233-1.463a5.96508,5.96508,0,0,0-.7766.00581c-.4551.06446-.977-.217-1.35988.21124-.38.425.07392.82518.10881,1.23632a4.70853,4.70853,0,0,0,1.38481,2.92477,7.12394,7.12394,0,0,0,5.62193,1.979,8.28241,8.28241,0,0,0,3.20728-.65635,4.85565,4.85565,0,0,0,3.23374-5.88991,3.99733,3.99733,0,0,0-2.13164-2.94543,21.93,21.93,0,0,0-4.15293-1.22176c-1.12205-.33507-2.24125-.68131-3.35248-1.05035a1.44233,1.44233,0,0,1-.96135-1.2476,2.71992,2.71992,0,0,1,1.926-3.23353,5.96606,5.96606,0,0,1,3.93669.15763,2.75521,2.75521,0,0,1,1.82121,2.14653,1.75721,1.75721,0,0,0,.48167,1.05028C335.70276,73.75841,336.4486,74.15162,337.13641,73.624ZM288.0532,68.66616V86.127h12.84548V84.01747h-10.421a30.15573,30.15573,0,0,1,.06507-5.83522h9.4417a11.28158,11.28158,0,0,0-.07008-2.13352h-9.47645v-5.25h10.29512a10.88624,10.88624,0,0,0-.08692-2.13253ZM223.423,68.685c.21724,4.19-.18347,8.25512.25223,12.31472a5.95257,5.95257,0,0,0,5.87451,5.64409c.759.00582,1.51917.01888,2.27706-.013a5.78042,5.78042,0,0,0,5.04551-3.6965,13.56317,13.56317,0,0,0,.67191-4.04809c.04911-3.036.0153-6.07326.01531-9.11l0-1.06957h-2.58175c0,1.33869.00085,2.61243-.00019,3.88616-.00211,2.55726.04243,5.11576-.02474,7.67133a3.85714,3.85714,0,0,1-2.36339,3.88285,6.28,6.28,0,0,1-3.50811.27158,3.12923,3.12923,0,0,1-2.1626-1.49916,5.2799,5.2799,0,0,1-.85691-2.89276c-.00757-3.47627-.00458-6.95255-.01-10.42882-.00048-.30508-.03259-.61011-.04988-.91277ZM277.53549,86.155c.88936-2.502,1.738-4.93521,2.61911-7.35653,1.1231-3.08616,2.27664-6.16124,3.40316-9.24616a4.58059,4.58059,0,0,0,.1353-.88645h-2.516c-.83687,2.45148-1.69624,4.87824-2.49206,7.32567-.79324,2.43944-1.56513,4.88465-2.50726,7.46655-1.72758-5.07838-3.30443-9.97018-4.97-14.75541H268.4912c2.14629,5.878,4.26048,11.66819,6.37249,17.45233Zm89.11175-17.47378c2.08415,3.31051,4.06316,6.48144,6.07888,9.62888a2.82887,2.82887,0,0,1,.51314,1.65269c-.03044,1.79911-.01374,3.59907-.00733,5.39867.00094.263.047.52574.06867.75181h2.49745V85.5905c0-1.95958.00659-3.91921-.00454-5.87873a2.24862,2.24862,0,0,1,.41259-1.32157c1.87693-2.86782,3.70644-5.76674,5.54219-8.66138.20109-.31708.34339-.67148.53027-1.043h-2.79592c-1.66922,2.717-3.195,5.49085-5.01157,8.28165-1.73118-2.87577-3.37257-5.60235-4.9883-8.28627Zm-10.46094,2.113v15.33h2.261c.0559-.08576.09516-.11788.09522-.15009q.01405-7.49856.0254-14.99714c.00006-.03087.04175-.06274.06633-.09219.02537-.03035.05361-.0583.12764-.1379h5.71481V68.70524h-14.2442v2.089Zm-91.97729-2.16a13.48853,13.48853,0,0,0-2.37155.10881c0,5.77652-.00009,11.49006.00175,17.20361a.19437.19437,0,0,0,.04248.10271.40132.40132,0,0,0,.07043.06664H264.209Zm79.02875.03738V86.17751c.64465,0,1.23668.0017,1.82868-.00118.14942-.00073.29877-.01608.43668-.02406.18931-2.03841.13042-16.63316-.06211-17.48068Z"/>
    <path class="b" d="M42.00009,101.04021c-.566-.40261-1.12423-.81678-1.69944-1.2058a51.79073,51.79073,0,0,1-6.67442-5.13692c-2.4067-2.275-4.819-4.5504-7.10821-6.94115-1.531-1.59885-2.84668-3.40318-4.26765-5.10811a80.26022,80.26022,0,0,1-5.58428-7.80262,70.622,70.622,0,0,1-3.72451-6.297c-1.03642-2.03148-2.12906-4.03492-3.13538-6.081a89.64485,89.64485,0,0,1-3.54-8.44746,108.002,108.002,0,0,1-3.53838-11.91c-.40914-1.67288-.73561-3.36975-1.01451-5.06968C1.40761,35.177,1.22281,33.294.94321,31.42577c-.25786-1.723-.33983-3.4593-.50261-5.18911C.08805,22.49017.29483,18.74552.27233,15.00015c-.00093-.15507.01727-.31025.0306-.533.85443-.22367,1.62872.22926,2.43893.26054,1.09638.04232,2.18343.3319,3.27967.3714a54.48806,54.48806,0,0,0,5.5153-.00646,46.62126,46.62126,0,0,0,6.07533-.81762,43.71778,43.71778,0,0,0,8.17332-2.5172A43.11854,43.11854,0,0,0,34.532,6.88736,48.78485,48.78485,0,0,0,41.37093.76381c.18542-.19567.38057-.38211.66012-.66181A43.47766,43.47766,0,0,0,60.83427,12.76347a43.33367,43.33367,0,0,0,22.38088,1.62564,50.23073,50.23073,0,0,1,.25586,8.0492c-.019,1.34669-.09917,2.69655-.23479,4.03657-.17813,1.76007-.4977,3.50678-.64785,5.2685a61.55688,61.55688,0,0,1-1.02883,6.401c-.41372,2.14883-.91968,4.286-1.51072,6.393-.69629,2.48223-1.47769,4.94369-2.31358,7.38282a69.869,69.869,0,0,1-3.08171,7.7414c-1.43337,2.97164-2.819,5.96926-4.35151,8.88939a87.24367,87.24367,0,0,1-6.74915,10.81981c-1.27914,1.7562-2.5578,3.51378-3.88389,5.23436-.8474,1.09946-1.73907,2.17158-2.68508,3.18683-1.87657,2.01388-3.72667,4.06269-5.73,5.94568a58.38723,58.38723,0,0,1-8.89694,7.1136c-.05631.03526-.07868.12472-.11688.1889ZM80.65764,17.889c-1.26714.1155-2.3667.27865-3.46907.30052a36.64218,36.64218,0,0,1-4.283-.1265c-1.65074-.16022-3.31108-.20944-4.94561-.534-1.42243-.28239-2.866-.47909-4.268-.8391a43.75859,43.75859,0,0,1-6.98288-2.40245A46.811,46.811,0,0,1,42.867,5.0838c-.279-.273-.56334-.54054-.80613-.77318-1.52229,1.29439-2.946,2.56-4.42833,3.75274a43.6215,43.6215,0,0,1-7.56866,4.82894,46.48533,46.48533,0,0,1-10.56593,3.85522,32.931,32.931,0,0,1-7.00315,1.02813,3.70045,3.70045,0,0,0-.47951.01229,24.53959,24.53959,0,0,1-6.75881.01143,16.71858,16.71858,0,0,0-2.12848-.014A95.581,95.581,0,0,0,5.38819,40.51852c1.62391-.32512,3.01148-1.20272,4.57152-1.44023.57136,1.26543.57215,1.26625,1.51846,1.61984.11186,1.52759.50869,1.8001,1.96174,1.3105.48135-.16218.94259-.38358,1.4148-.57347a3.164,3.164,0,0,1,2.23749-.31492l-.337,4.65034a9.81248,9.81248,0,0,0-4.08183,1.7536c-1.83394,1.39917-3.45658,4.49824-1.46918,7.08833a1.39017,1.39017,0,0,1,.11964.48035l-1.22692.48486a.96927.96927,0,0,0,.00558.35673c1.00438,2.25737,1.96807,4.53479,3.04449,6.75755.90756,1.87409,1.91519,3.70227,2.93709,5.51782q2.37869,4.226,5.15958,8.204a95.80629,95.80629,0,0,0,7.91992,9.935,74.291,74.291,0,0,0,10.413,9.47731c.81516.60665,1.67762,1.14973,2.54707,1.74169a93.15125,93.15125,0,0,0,23.67907-26.705,109.60928,109.60928,0,0,0,7.51617-15.08591c-.59751-.22549-1.06741-.41658-1.54642-.58118-1.88556-.64791-3.77556-1.283-5.6598-1.93466-.31138-.1077-.60229-.27458-1.017-.46725a8.74894,8.74894,0,0,0,4.09385-7.21555c.08752-3.20111-1.437-5.35087-4.02714-7.1516.89444-.38451,1.62846-.65724,2.31938-1.01353a1.19567,1.19567,0,0,1,1.09921-.01227c2.86709,1.03722,5.75465,2.018,8.63837,3.00891.28276.09716.58407.14036.96606.22942.27991-1.61242.475-3.13189.81709-4.61751.56631-2.45954.782-4.96813,1.11368-7.45759.23538-1.76686.21775-3.56755.30925-5.35333a4.24973,4.24973,0,0,1,.02121-.83735C80.81874,20.958,80.52639,19.52818,80.65764,17.889Z"/>
    <path class="c" d="M497.748,29.28531l.253-.00525V60.72012l-.24474-.00183Z"/>
    <path class="d" d="M234.53113,29.29877h6.08555c3.03418,8.77688,5.94615,17.59759,9.047,26.49556,3.02037-8.94521,5.98238-17.71755,8.94494-26.49157h6.06124V60.70619c-1.277.06917-2.58.00744-3.861.03622-.04641-.05219-.07517-.08046-.099-.11241a.2292.2292,0,0,1-.05743-.09767c-.0099-.11933-.01186-.23957-.01177-.35946q.00743-12.476.01336-24.952c0-.03428-.03859-.06859-.14139-.24-.37488,1.04119-.7355,1.98366-1.05481,2.93995-1.3,3.89344-2.57948,7.79375-3.88172,11.68645q-1.78594,5.33853-3.607,10.6653a2.25121,2.25121,0,0,1-.26833.42491h-4.18794c-.17482-.4636-.3927-.99682-.57853-1.541q-2.99435-8.76771-5.9821-17.53767c-.74554-2.17967-1.516-4.3508-2.27506-6.52563a.28326.28326,0,0,0-.07291.039.21015.21015,0,0,0-.06891.09514,1.43494,1.43494,0,0,0-.01352.23914q.01237,12.5361.02315,25.07222c0,.032-.04026.064-.0961.14721h-3.9177Z"/>
    <path class="e" d="M497.748,29.28532l.00827,31.433h-4.8647q-3.90244-6.2097-7.83344-12.46669c-2.6079-4.15764-5.20941-8.3193-7.94378-12.68694v25.149c-1.44633.04964-2.82006.0092-4.23716.02873V29.32392h5.17246q7.71063,12.47862,15.6044,25.25357V29.28532Z"/>
    <path class="b" d="M347.74131,38.86061c-1.289,0-2.44447.00629-3.59983-.00226-.74563-.00552-.72255-.02208-.93853-.75208a7.92178,7.92178,0,0,0-1.84113-3.38719,7.68944,7.68944,0,0,0-3.77843-2.07486,12.86373,12.86373,0,0,0-2.78373-.44635,9.64129,9.64129,0,0,0-6.19276,1.91126,10.69791,10.69791,0,0,0-3.9054,6.28515,22.05756,22.05756,0,0,0-.41725,7.10294,15.071,15.071,0,0,0,1.55028,5.6322,7.88679,7.88679,0,0,0,5.3009,4.3544A11.87041,11.87041,0,0,0,338.031,57.347c3.55975-1.22217,5.4545-3.52056,5.91578-7.48375.04518-.38828.15958-.769.19717-1.15754.0341-.35271.00724-.7113.00724-1.1495h-9.78087c-.09686-1.21733-.034-2.35987-.04456-3.49549.99765-.20315,10.14236-.27259,13.7622-.10967.20628,1.02871.27358,10.744.113,16.70067a18.35477,18.35477,0,0,1-2.78552.09032c-.34594-1.27468-.69173-2.54884-1.06122-3.91029-.654.64242-1.23674,1.22923-1.835,1.79984a10.42532,10.42532,0,0,1-6.356,2.807,23.16052,23.16052,0,0,1-3.07565.20588,13.75784,13.75784,0,0,1-7.9888-2.79881,12.4,12.4,0,0,1-3.9734-5.489,19.86932,19.86932,0,0,1-1.25362-5.36766,21.76871,21.76871,0,0,1-.14672-3.56062,18.90842,18.90842,0,0,1,3.09862-10.11913,13.25356,13.25356,0,0,1,8.68458-5.67414,15.17268,15.17268,0,0,1,4.8342-.13487A16.69468,16.69468,0,0,1,341.86,30.05361a10.56233,10.56233,0,0,1,5.41668,6.97412C347.42951,37.59144,347.56427,38.16007,347.74131,38.86061Z"/>
    <path class="f" d="M170.1561,44.33253a19.5018,19.5018,0,0,1-.96819,7.06545,15.635,15.635,0,0,1-4.18965,6.63753,13.819,13.819,0,0,1-7.00884,3.4144,19.38313,19.38313,0,0,1-5.35356.18,13.52907,13.52907,0,0,1-8.39084-3.62818,15.45836,15.45836,0,0,1-4.34691-8.21714,21.75351,21.75351,0,0,1-.41228-6.39012,17.481,17.481,0,0,1,3.72887-10.00144,12.82192,12.82192,0,0,1,7.65142-4.62178,19.33332,19.33332,0,0,1,4.95311-.4148,16.12272,16.12272,0,0,1,8.15026,2.40715,13.28436,13.28436,0,0,1,5.22536,6.99968A17.27563,17.27563,0,0,1,170.1561,44.33253Zm-26.16487.91589A14.40611,14.40611,0,0,0,145.202,52.0096a10.18488,10.18488,0,0,0,2.24126,3.3157,9.55845,9.55845,0,0,0,6.10375,2.48513,15.49225,15.49225,0,0,0,4.15511-.17608,8.30307,8.30307,0,0,0,5.42568-3.542,17.00724,17.00724,0,0,0,2.69063-8.90874,9.80031,9.80031,0,0,0-.18514-2.83906c-.217-.91465-.24465-1.885-.54258-2.76774a10.05554,10.05554,0,0,0-5.73656-6.559,11.095,11.095,0,0,0-6.96163-.57131,10.02474,10.02474,0,0,0-7.45734,6.60229A15.631,15.631,0,0,0,143.99123,45.24842Z"/>
    <path class="e" d="M402.5281,41.96185c4.60563,6.30225,9.11621,12.47448,13.69172,18.73554H410.558C406.85957,55.52,403.14665,50.3223,399.36078,45.0225L394.31,49.72732v10.9019a7.88937,7.88937,0,0,1-2.13015.10328c-.67652.024-1.3546.00521-2.02424.00521-.18223-.91518-.22655-29.721-.051-31.423h4.05124a.91284.91284,0,0,1,.071.07635c.02291.02989.05689.06437.057.09689q.01367,7.37382.0247,14.74764c.00006.03457.03779.06906.10005.17571.317-.30143.62631-.58773.92713-.88272q7.05789-6.9216,14.11444-13.84463c.14145-.1387.29115-.269.42314-.39048h6.0569c-.35856.37462-.62223.67763-.91456.94989-.66905.62313-1.36439,1.21831-2.02723,1.84782-2.14093,2.03345-4.26534,4.08437-6.40947,6.11444C405.2775,39.43775,403.95141,40.64378,402.5281,41.96185Z"/>
    <path class="g" d="M443.284,29.30493h4.32534c0,.3387.00026.64571-.00006.95272-.00665,6.31549.04418,12.63184-.0503,18.946a15.27862,15.27862,0,0,1-1.51679,6.72546,9.80936,9.80936,0,0,1-6.781,5.25528,16.11652,16.11652,0,0,1-5.302.45388,12.75552,12.75552,0,0,1-6.83778-2.25344,9.9959,9.9959,0,0,1-3.03528-3.86363,17.64188,17.64188,0,0,1-1.24313-5.24173,45.99491,45.99491,0,0,1-.18079-5.95814c-.03114-4.59654-.01-9.19343-.01-13.79018l0-1.21429h4.32566v1.07255c0,6.07571-.04324,12.15189.02464,18.22684a11.73279,11.73279,0,0,0,1.34432,5.7943,6.43466,6.43466,0,0,0,4.43022,3.22267,10.48764,10.48764,0,0,0,5.723-.32513,6.36,6.36,0,0,0,4.2787-4.56532,14.94213,14.94213,0,0,0,.515-3.97749c-.02306-6.07562-.00993-12.15137-.00987-18.22707Z"/>
    <path class="h" d="M359.392,60.70938h-4.1858a3.87614,3.87614,0,0,1,.11385-.86411q3.07521-8.24646,6.17866-16.4824c1.71874-4.53669,3.47535-9.059,5.21146-13.58915a3.22331,3.22331,0,0,0,.10195-.46677h4.90378c.315.75744.67375,1.53374.96475,2.33465q2.0232,5.56851,4.01477,11.14852,2.71041,7.56271,5.41545,15.12736c.31673.88137.68106,1.74561,1.06383,2.72084-.3833.04222-.6412.09284-.89957.09518-1.03954.00942-2.07958-.01222-3.11871.01092a.80188.80188,0,0,1-.93742-.657c-.58473-1.82354-1.255-3.61963-1.89024-5.427-.32411-.92215-.66591-1.839-.95478-2.77223a.688.688,0,0,0-.79-.53661q-5.578.01479-11.15607-.00133c-.48674-.00169-.65839.19482-.81592.65207-.9298,2.69859-1.90963,5.38-2.88056,8.06426A5.239,5.239,0,0,1,359.392,60.70938Zm14.54221-12.979c-1.582-4.52567-3.13914-8.98017-4.69624-13.43469-1.8177,4.4503-3.49808,8.86339-5.0401,13.43469Z"/>
    <path class="h" d="M287.93493,29.31559c.55178,1.53746,1.08358,3.0474,1.635,4.55014,1.45479,3.9651,2.92858,7.92325,4.37376,11.89182.78938,2.16761,1.52222,4.35576,2.3055,6.52564.96929,2.6851,1.96512,5.36061,2.94531,8.04179a1.80166,1.80166,0,0,1,.04406.36708h-4.6668c-1.07511-3.076-2.16738-6.2012-3.2538-9.30967H278.991c-1.12,3.09509-2.23533,6.17705-3.365,9.29881h-4.45017c3.956-10.49907,7.88283-20.92054,11.81853-31.36561ZM285.278,33.98093c-.88222,2.41773-1.728,4.67915-2.53213,6.95526-.797,2.25583-1.64872,4.49388-2.43642,6.79168a61.82745,61.82745,0,0,0,9.70765-.14509C288.451,43.08793,286.88642,38.59726,285.278,33.98093Z"/>
    <path class="h" d="M108.15031,60.68856l11.81925-31.36927h4.97106c1.80209,5.05225,3.58968,10.09548,5.40028,15.13041,1.58724,4.41378,3.19859,8.81889,4.80378,13.2262.25443.69858.54538,1.384.79348,2.08469a7.39774,7.39774,0,0,1,.19866.93243h-4.57829l-3.261-9.29755H115.97288l-3.37955,9.29309Zm18.9013-12.93945c-1.60961-4.62578-3.17315-9.11917-4.79147-13.77-.58282,1.6257-1.114,3.12288-1.65642,4.616-.56,1.54127-1.14153,3.07475-1.694,4.61867-.53131,1.48479-1.13555,2.94685-1.5945,4.53533Z"/>
    <path class="h" d="M211.37656,29.28686h4.79886a5.99808,5.99808,0,0,1,.49941.89713c1.14618,3.20252,2.25082,6.42006,3.41438,9.61617,1.806,4.96085,3.65308,9.90674,5.4737,14.86229.634,1.72555,1.24655,3.459,1.85434,5.194a5.02752,5.02752,0,0,1,.13663.83376h-4.60372q-1.5953-4.57892-3.23488-9.28507h-12.31c-1.20822,2.99116-2.207,6.15574-3.42305,9.27375H199.559C203.51968,50.15778,207.44163,39.73954,211.37656,29.28686ZM218.45171,47.724c-1.59439-4.57207-3.16017-9.062-4.74285-13.60049-.75833,1.47079-4.78868,12.77031-4.85227,13.60049Z"/>
    <path class="b" d="M173.46233,29.32378h4.85611c3.01278,4.85606,5.9141,9.899,9.0124,15.00272l9.00469-15.03567h5.01411c-.22081.41936-.38344.79032-.59874,1.12766q-3.68735,5.77731-7.38822,11.546c-1.14646,1.79161-2.28409,3.58888-3.43565,5.37719a2.55357,2.55357,0,0,0-.368,1.463c.01424,3.91606.00769,7.83219.00769,11.8178a8.20846,8.20846,0,0,1-2.22311.10932c-.71411.02609-1.42992.00567-2.25924.00567,0-.37487,0-.68111,0-.98736,0-3.63718-.00655-7.27437.00716-10.9115a2.57637,2.57637,0,0,0-.34332-1.4716q-3.77277-5.93107-7.53239-11.87055c-1.18384-1.86184-2.38831-3.71055-3.5728-5.572A2.5473,2.5473,0,0,1,173.46233,29.32378Z"/>
    <path class="i" d="M462.91026,60.70783h-4.11883c-.19336-.85233-.26267-29.09963-.07-31.38532h4.18882Z"/>
    <path class="j" d="M242.41831,68.66752h2.91853c2.80574,4.53788,5.62636,9.09982,8.58954,13.89235V68.68012c.80112-.073,1.54072-.02862,2.33836-.034V86.34789c-.61283,0-1.20545-.04182-1.78952.01109a1.25993,1.25993,0,0,1-1.301-.78427c-1.62376-2.65147-3.30464-5.26789-4.95391-7.90383-1.00114-1.60007-1.97989-3.21413-2.974-4.81865a4.6481,4.6481,0,0,0-.39939-.4623c-.02316.41295-.05351.70476-.05376.9966q-.00473,5.81457-.00213,11.62914a3.16883,3.16883,0,0,1-.01791.8341,1.16474,1.16474,0,0,1-.42922.49629c-.07215.0573-.23179.00044-.35154.00241-1.847.03055-1.57283-.0122-1.5734-1.51663q-.0028-7.43305-.00069-14.8661Z"/>
    <path class="k" d="M308.57752,78.72607v7.37911H306.062v-17.463c.338,0,.64673-.00027.95543,0,2.59838.0025,5.19707-.01741,7.795.01827a5.75241,5.75241,0,0,1,3.1198.91231,3.65059,3.65059,0,0,1,1.75644,3.16188,4.79067,4.79067,0,0,1-.55307,3.21344,18.17264,18.17264,0,0,1-1.62056,1.67441,3.48394,3.48394,0,0,1,1.942,3.46818,19.03492,19.03492,0,0,0,.22746,3.31133,7.81094,7.81094,0,0,0,.67412,1.67959,12.61573,12.61573,0,0,1-2.93371.05727,18.2232,18.2232,0,0,1-.382-4.657,2.90984,2.90984,0,0,0-.464-1.67739,2.38447,2.38447,0,0,0-2.01273-1.07277C312.61382,78.71385,310.66121,78.72607,308.57752,78.72607Zm-.15606-7.68685c0,1.81144-.00815,3.485.00369,5.15844.00527.74767.0755.81707.82228.82247,1.55725.01127,3.11558.03342,4.67145-.01465a7.46127,7.46127,0,0,0,1.71727-.34541,2.18193,2.18193,0,0,0,1.55406-1.622,4.81615,4.81615,0,0,0,.0948-1.29857,2.50654,2.50654,0,0,0-2.533-2.68768C312.68193,71.00109,310.60965,71.03922,308.42146,71.03922Z"/>
    <path class="k" d="M337.13641,73.624c-.68781.52762-1.43365.13441-2.0962.28591a1.75721,1.75721,0,0,1-.48167-1.05028,2.75521,2.75521,0,0,0-1.82121-2.14653,5.96606,5.96606,0,0,0-3.93669-.15763,2.71992,2.71992,0,0,0-1.926,3.23353,1.44233,1.44233,0,0,0,.96135,1.2476c1.11123.369,2.23043.71528,3.35248,1.05035a21.93,21.93,0,0,1,4.15293,1.22176,3.99733,3.99733,0,0,1,2.13164,2.94543,4.85565,4.85565,0,0,1-3.23374,5.88991,8.28241,8.28241,0,0,1-3.20728.65635,7.12394,7.12394,0,0,1-5.62193-1.979,4.70853,4.70853,0,0,1-1.38481-2.92477c-.03489-.41114-.48879-.81133-.10881-1.23632.38288-.42827.90478-.14678,1.35988-.21124a5.96508,5.96508,0,0,1,.7766-.00581c.113.48674.21451.97832.34233,1.463a3.30293,3.30293,0,0,0,1.9873,2.33337,6.60185,6.60185,0,0,0,5.1683-.08151,2.74173,2.74173,0,0,0,1.25541-3.95067,3.19634,3.19634,0,0,0-2.17369-1.259c-1.5477-.41342-3.10635-.786-4.65265-1.2044a6.18271,6.18271,0,0,1-1.9205-.86273,3.5369,3.5369,0,0,1-1.576-2.87812,5.42054,5.42054,0,0,1,1.11595-3.76763,4.26273,4.26273,0,0,1,1.9232-1.51026,8.18278,8.18278,0,0,1,7.76835.88468,4.155,4.155,0,0,1,1.66421,2.88514C337.01609,72.84,337.06656,73.18675,337.13641,73.624Z"/>
    <path class="l" d="M288.0532,68.66616h12.59294a10.88624,10.88624,0,0,1,.08692,2.13253H290.43794v5.25h9.47645a11.28158,11.28158,0,0,1,.07008,2.13352h-9.4417a30.15573,30.15573,0,0,0-.06507,5.83522h10.421V86.127H288.0532Z"/>
    <path class="m" d="M223.423,68.685h2.579c.01729.30266.0494.60769.04988.91277.00541,3.47627.00242,6.95255.01,10.42882a5.2799,5.2799,0,0,0,.85691,2.89276,3.12923,3.12923,0,0,0,2.1626,1.49916,6.28,6.28,0,0,0,3.50811-.27158,3.85714,3.85714,0,0,0,2.36339-3.88285c.06717-2.55557.02263-5.11407.02474-7.67133.001-1.27373.00019-2.54747.00019-3.88616h2.58175l0,1.06957c0,3.03676.0338,6.07406-.01531,9.11a13.56317,13.56317,0,0,1-.67191,4.04809,5.78042,5.78042,0,0,1-5.04551,3.6965c-.75789.03192-1.51805.01886-2.27706.013a5.95257,5.95257,0,0,1-5.87451-5.64409C223.23948,76.94013,223.64019,72.87506,223.423,68.685Z"/>
    <path class="k" d="M277.53549,86.155h-2.6718c-2.112-5.78414-4.2262-11.57432-6.37249-17.45233h2.71653c1.66562,4.78523,3.24247,9.677,4.97,14.75541.94213-2.5819,1.714-5.02711,2.50726-7.46655.79582-2.44743,1.65519-4.87419,2.49206-7.32567h2.516a4.58059,4.58059,0,0,1-.1353.88645c-1.12652,3.08492-2.28006,6.16-3.40316,9.24616C279.27344,81.21975,278.42485,83.65293,277.53549,86.155Z"/>
    <path class="k" d="M366.64724,68.68118h2.83553c1.61573,2.68392,3.25712,5.4105,4.9883,8.28627,1.81659-2.7908,3.34235-5.56468,5.01157-8.28165h2.79592c-.18688.37154-.32918.72594-.53027,1.043-1.83575,2.89464-3.66526,5.79356-5.54219,8.66138a2.24862,2.24862,0,0,0-.41259,1.32157c.01113,1.95952.00454,3.91915.00454,5.87873v.52273H373.3006c-.02165-.22607-.06773-.48886-.06867-.75181-.00641-1.7996-.02311-3.59956.00733-5.39867a2.82887,2.82887,0,0,0-.51314-1.65269C370.7104,75.16262,368.73139,71.99169,366.64724,68.68118Z"/>
    <path class="e" d="M356.1863,70.7942h-5.95384v-2.089h14.2442v2.04161h-5.71481c-.074.0796-.10227.10755-.12764.1379-.02458.02945-.06627.06132-.06633.09219q-.01442,7.49856-.0254,14.99714c-.00006.03221-.03932.06433-.09522.15009h-2.261Z"/>
    <path class="n" d="M264.209,68.63421V86.116h-2.25689a.40132.40132,0,0,1-.07043-.06664.19437.19437,0,0,1-.04248-.10271c-.00184-5.71355-.00175-11.42709-.00175-17.20361A13.48853,13.48853,0,0,1,264.209,68.63421Z"/>
    <path class="e" d="M343.23776,68.67159H345.441c.19253.84752.25142,15.44227.06211,17.48068-.13791.008-.28726.02333-.43668.02406-.592.00288-1.184.00118-1.82868.00118Z"/>
    <path class="o" d="M80.65764,17.889c-.13125,1.63918.1611,3.069-.211,4.48438a4.24973,4.24973,0,0,0-.02121.83735c-.0915,1.78578-.07387,3.58647-.30925,5.35333-.33166,2.48946-.54737,4.998-1.11368,7.45759-.34207,1.48562-.53718,3.00509-.81709,4.61751-.382-.08906-.6833-.13226-.96606-.22942-2.88372-.99094-5.77128-1.97169-8.63837-3.00891a1.19567,1.19567,0,0,0-1.09921.01227c-.69092.35629-1.42494.629-2.31938,1.01353,2.59015,1.80073,4.11466,3.95049,4.02714,7.1516a8.74894,8.74894,0,0,1-4.09385,7.21555c.41474.19267.70565.35955,1.017.46725,1.88424.65168,3.77424,1.28675,5.6598,1.93466.479.1646.94891.35569,1.54642.58118a109.60928,109.60928,0,0,1-7.51617,15.08591,93.15125,93.15125,0,0,1-23.67907,26.705c-.86945-.592-1.73191-1.135-2.54707-1.74169a74.291,74.291,0,0,1-10.413-9.47731,95.80629,95.80629,0,0,1-7.91992-9.935q-2.77843-3.98474-5.15958-8.204c-1.0219-1.81555-2.02953-3.64373-2.93709-5.51782-1.07642-2.22276-2.04011-4.50018-3.04449-6.75755a.96927.96927,0,0,1-.00558-.35673l1.22692-.48486a1.39017,1.39017,0,0,0-.11964-.48035c-1.9874-2.59009-.36476-5.68916,1.46918-7.08833a9.81248,9.81248,0,0,1,4.08183-1.7536l.337-4.65034a3.164,3.164,0,0,0-2.23749.31492c-.47221.18989-.93345.41129-1.4148.57347-1.453.4896-1.84988.21709-1.96174-1.3105-.94631-.35359-.9471-.35441-1.51846-1.61984-1.56.23751-2.94761,1.11511-4.57152,1.44023A95.581,95.581,0,0,1,3.128,17.78537a16.71858,16.71858,0,0,1,2.12848.014,24.53959,24.53959,0,0,0,6.75881-.01143,3.70045,3.70045,0,0,1,.47951-.01229,32.931,32.931,0,0,0,7.00315-1.02813A46.48533,46.48533,0,0,0,30.06385,12.8923a43.6215,43.6215,0,0,0,7.56866-4.82894c1.48232-1.19277,2.906-2.45835,4.42833-3.75274.24279.23264.52715.50016.80613.77318a46.811,46.811,0,0,0,13.84211,9.20372A43.75859,43.75859,0,0,0,63.692,16.69c1.402.36,2.84553.55671,4.268.8391,1.63453.32451,3.29487.37373,4.94561.534a36.64218,36.64218,0,0,0,4.283.1265C78.29094,18.16765,79.3905,18.0045,80.65764,17.889ZM48.271,46.89018c-2.60222-5.99668-1.20546-10.9701,3.05356-15.37682-.068-.0595-.145-.17434-.24934-.21109-2.95064-1.03876-5.90553-2.06549-8.85511-3.10724a1.39421,1.39421,0,0,0-1.021.02165c-1.72776.6241-3.476,1.19135-5.21192,1.79315q-5.20858,1.80564-10.40994,3.632a4.69885,4.69885,0,0,0-.71439.41154l7.01365,8.93347c.14823-.09294.2446-.15214.33976-.21322a2.03769,2.03769,0,0,1,2.22338-.00774,1.62774,1.62774,0,0,1,.3959,2.027c-.17258.47841-.36306.95218-.57785,1.41294a2.47621,2.47621,0,0,0-.40636,1.12485,5.754,5.754,0,0,0,.6548-.13858c2.13933-.75222,4.27572-1.51279,6.41442-2.26682a2.087,2.087,0,0,1,1.56793-.03326c.97639.40107,1.97227.7572,2.97033,1.10219C46.33538,46.29724,47.22613,46.55926,48.271,46.89018ZM58.04,30.5358c-.11647-.06632-.29245-.25454-.43754-.23317a14.306,14.306,0,0,0-1.48077.34056,10.332,10.332,0,0,0-5.621,3.70078,11.03305,11.03305,0,0,0-2.1,9.164,9.80069,9.80069,0,0,0,2.13541,4.41276,11.94534,11.94534,0,0,0,4.13856,3.53408,14.64008,14.64008,0,0,0,4.03715,1.19356,7.87823,7.87823,0,0,0,7.39077-2.19088,6.6744,6.6744,0,0,0,1.31662-7.9419,6.85213,6.85213,0,0,0-5.187-3.76881c1.10279-.49333,2.02921-.89818,2.94749-1.32072q2.299-1.05788,4.58608-2.14161c.128-.06083.20261-.23406.39376-.46673-.677,0-1.18874-.02322-1.69745.00594a2.889,2.889,0,0,1-1.6858-.45991,4.44987,4.44987,0,0,1-1.62079-1.69444c-.204-.36058-.46777-.68732-.67524-.98706-.423.13306-.7218.22266-1.01774.3208-2.59717.86123-5.20172,1.70146-7.7836,2.60635-.484.16961-1.10606.15386-1.41975.66762,0,.11753-.03128.21725.00489.274.31967.5014.439.52794,1.08184.35979.50189-.1313.96226-.52462,1.612-.29053-.32365,1.13477-.60631,2.23084-.95112,3.307-.3934,1.2278-.89669,2.42219-1.25244,3.65978a5.911,5.911,0,0,1-2.25578,3.48206,3.45421,3.45421,0,0,0-.45486.50988,3.96242,3.96242,0,0,0,1.0841-.07907,8.23521,8.23521,0,0,0,4.934-4.82475c.09387-.2568.147-.53052.26-.77768a1.25651,1.25651,0,0,1,.38409-.559,11.01613,11.01613,0,0,1,1.2626-.56718c-.4,1.26892-.76733,2.40421-1.11561,3.54531-.753,2.467-1.49221,4.93827-2.25215,7.40313-.05154.16719-.2287.29565-.352.44781a7.109,7.109,0,0,1-4.20412-4.01823,10.9462,10.9462,0,0,1-.56027-1.78551,9.48552,9.48552,0,0,1-.33368-3.28792,19.0816,19.0816,0,0,1,1.45853-5.42366,11.31108,11.31108,0,0,1,2.69826-4.007C56.17445,31.90716,57.10962,31.24923,58.04,30.5358Zm-39.34055,5.606c-.19581.051-.38214.09146-.56311.14883a5.75958,5.75958,0,0,0-.55049.20421,8.8876,8.8876,0,0,0-4.77335,4.3705,1.90351,1.90351,0,0,0-.01082.69084,1.77135,1.77135,0,0,0,.53489-.13219,9.4425,9.4425,0,0,1,4.44961-1.73366c.54082-.06659.68861.06979.58864.63382a7.18513,7.18513,0,0,0-.11022.81521c-.09853,1.624-.18534,3.24872-.28227,4.87283-.04115.68954-.26129.95857-.907,1.006A6.06617,6.06617,0,0,0,12.55,49.529a3.93387,3.93387,0,0,0,.05531,5.3962A8.16758,8.16758,0,0,0,16.025,57.42072c.10815.04491.214.14337.31778.13912.14277-.00584.40121-.08415.402-.13449a.78537.78537,0,0,0-.15195-.50552,1.756,1.756,0,0,0-.5119-.28511,6.93509,6.93509,0,0,1-2.1012-1.73452,3.11221,3.11221,0,0,1,.64082-4.81012,3.92675,3.92675,0,0,1,2.98119-.269,9.57694,9.57694,0,0,1,3.59071,1.96,7.38742,7.38742,0,0,0,.76821.45412c.78248-1.51657,1.5199-2.94539,2.25592-4.37493a.46012.46012,0,0,0,.028-.11391.77292.77292,0,0,0-.4-.90555c-.37348-.12035-.60243.10159-.77531.39241-.21223.357-.41209.72136-.59268,1.03923l-3.28564-1.33959.30143-1.49109,7.16787-2.59646c.8859,1.06882,1.69482,2.04381,2.50268,3.01968a16.085,16.085,0,0,0,2.65491,3.00364l2.26854-4.51327c-.84671-.9447-.99995-.93675-1.54314.03133-.08306.148-.17954.28855-.31186.49962-.14577-.17757-.2481-.3004-.34849-.4248q-2.46189-3.0508-4.92228-6.10282c-1.18953-1.4807-2.36159-2.97546-3.55543-4.45266q-1.71927-2.12733-3.47262-4.227a4.73077,4.73077,0,0,0-.71676-.55054l-.33855,2.77733c-.63493.24233-1.29169.49034-1.94652.74335a8.98823,8.98823,0,0,0-5.85023,6.55947c.31123.30453.52626.18577.74793-.04384.52726-.54614,1.04031-1.10956,1.60328-1.617A9.24879,9.24879,0,0,1,18.39244,35.274c.09587-.01415.20527.06332.307.09767Zm13.86325,36.8786c.49.39458.91645.73833,1.34329,1.08159a1.076,1.076,0,0,0,1.40849.097c.71721-.49,1.40377-1.0262,2.08748-1.563a2.71168,2.71168,0,0,0,.38386-.6147,6.93951,6.93951,0,0,0-.81278.11645c-.95469.276-1.22215.14083-1.23121-.79142-.02559-2.63178-.00895-5.264-.00895-7.95155.96981.03906,1.07978-.75506,1.51172-1.333a19.52419,19.52419,0,0,1-3.19949-1.39423c-1.05539-.69914-1.73424-.32757-2.49282.36049-.56323.51087-.54738.82859.19507,1.08725.39013.13593.64972.27662.65118.70572.00434,1.2689.00156,2.53784.00156,3.82908H28.80173v-1.223c0-1.19975-.006-2.39954.00353-3.5992.003-.37776-.018-.719-.50214-.8496-.50665.202-.43186.66016-.43166,1.08953q.00191,4.01915-.00161,8.03828c-.00045.30731-.03173.61459-.04936.93352a1.76835,1.76835,0,0,1-1.45248-.42606c0-2.471.01809-4.91058-.00763-7.34973a3.13289,3.13289,0,0,0-1.61588-2.825,3.325,3.325,0,0,0-2.831-.0997,3.534,3.534,0,0,0-2.2677,1.71643c.50886.31515.79868-.107,1.13192-.23351A2.14426,2.14426,0,0,1,23.738,63.74125c.03113,2.47373.00844,4.94815.00844,7.38561a3.77193,3.77193,0,0,0-1.52392,4.77543c.77208,1.565,1.91318,2.28234,3.48705,1.92362-.43353-.19714-.78535-.34237-1.12392-.51379a2.34063,2.34063,0,0,1-1.1494-2.99408c.47684-1.065,1.33044-1.38813,2.6735-.88773a11.14378,11.14378,0,0,1,2.18995,1.11443,1.47729,1.47729,0,0,0,1.94728-.00541C30.93108,74.01476,31.68914,73.58669,32.56268,73.02043Zm24.101-13.12022a2.79113,2.79113,0,0,1-1.52933,1.94006c-.2924.20069-.58141.40816-.85724.63078-.88333.71293-1.03364,1.25632-.52314,2.232a4.53725,4.53725,0,0,1,.50424,2.27207c-.03825,1.9502-.01236,3.90166-.01236,5.86268l3.46853,1.5672,2.99992-2.23591c0-.90151-.02574-1.70073.00667-2.49757a7.8813,7.8813,0,0,1,.21507-2.82979.85065.85065,0,0,0-.26462-.71142c-.46055-.41728-.98474-.76432-1.51252-1.161a5.677,5.677,0,0,0-2.13827,1.85205,3.54543,3.54543,0,0,0,.53739.12023c.252.00911.49442-.41081.73732-.07436a1.3857,1.3857,0,0,1,.23632.74807c.02195,1.39812.00615,2.7968.01294,4.19524.00179.36965.00319.72565-.37691.93921-1.23927-.3792-1.53308-.72541-1.53995-1.85834-.0075-1.23861-.02663-2.4779.005-3.71571a2.445,2.445,0,0,0-.8011-1.89841c-1.12607-1.11535-1.11514-1.12754.14-2.13016A2.5258,2.5258,0,0,0,57.10218,60.575C57.05857,60.35535,56.84467,60.16949,56.66372,59.90021ZM39.14779,73.01767c.586.34726,1.13211.65451,1.66166.988,1.166.73437,2.18451.39312,2.81848-1.01335-.21645-.01351-.40778-.02831-.5994-.037-1.01743-.04593-1.29538-.29609-1.30669-1.25529-.01547-1.311-.00387-2.62238-.00387-4.00415l1.69361-1.01091c.622.49409.97292.90455.959,1.34135a21.00179,21.00179,0,0,1-.21958,4.84339,4.26086,4.26086,0,0,0,.8177.56637c.53484.21734.93241.96187,1.55078.68637a4.67135,4.67135,0,0,0,1.30594-1.18814c.12527-.13428.11772-.39248.17417-.60606a1.2047,1.2047,0,0,0-.32866-.04134c-.91435.24564-1.09112.1448-1.10522-.71037-.01711-1.03764-.01949-2.0761.0029-3.11353.00994-.46057.09623-.91948.15637-1.45488-.74648-.63443-1.32493-1.59-2.3862-1.9518l-2.86618,1.81582c-.37619-.4717-.68521-.87556-1.01209-1.26441a.789.789,0,0,0-1.15036-.16712,11.25468,11.25468,0,0,0-1.16423,1.00954,1.77316,1.77316,0,0,0-.245.59834c1.24341.27481,1.245.27481,1.24648,1.47786C39.14913,70.00244,39.14779,71.47844,39.14779,73.01767Zm13.43774-.34246c-.90318-.32971-.71995-.96882-.72261-1.54962q-.00737-1.61576.00049-3.23155c.00131-.30182-.05644-.58353.342-.78149.28317-.14072.14957-.47011-.08644-.6904-1.29252-1.20644-1.66538-1.20612-2.944.00492-.23387.22151-.36413.56138-.08473.69424.40691.19351.34951.47611.35105.7801q.00729,1.43622.00081,2.87248c-.0029.67621.147,1.39364-.65846,1.916L50.644,74.2164Zm-1.92271-10.2961a1.42423,1.42423,0,0,0-1.42755,1.27843,1.48122,1.48122,0,0,0,1.47666,1.3778,1.425,1.425,0,0,0,1.34836-1.36658A1.37267,1.37267,0,0,0,50.66282,62.37911ZM63.10817,72.201a1.19641,1.19641,0,0,0-1.10581-1.14361,1.23336,1.23336,0,0,0-1.03258,1.2145A1.21339,1.21339,0,0,0,62.075,73.42112,1.25,1.25,0,0,0,63.10817,72.201Z"/>
    <path class="p" d="M143.99123,45.24842a15.631,15.631,0,0,1,.944-6.19969,10.02474,10.02474,0,0,1,7.45734-6.60229,11.095,11.095,0,0,1,6.96163.57131,10.05554,10.05554,0,0,1,5.73656,6.559c.29793.88273.32554,1.85309.54258,2.76774a9.80031,9.80031,0,0,1,.18514,2.83906,17.00724,17.00724,0,0,1-2.69063,8.90874,8.30307,8.30307,0,0,1-5.42568,3.542,15.49225,15.49225,0,0,1-4.15511.17608,9.55845,9.55845,0,0,1-6.10375-2.48513,10.18488,10.18488,0,0,1-2.24126-3.3157A14.40611,14.40611,0,0,1,143.99123,45.24842Z"/>
    <path class="q" d="M373.93418,47.73034h-9.73634c1.542-4.5713,3.2224-8.98439,5.0401-13.43469C370.795,38.75017,372.35217,43.20467,373.93418,47.73034Z"/>
    <path class="r" d="M285.278,33.98093c1.6084,4.61633,3.173,9.107,4.7391,13.60185a61.82745,61.82745,0,0,1-9.70765.14509c.7877-2.2978,1.63939-4.53585,2.43642-6.79168C283.55006,38.66008,284.3958,36.39866,285.278,33.98093Z"/>
    <path class="r" d="M127.05161,47.74911h-9.73637c.459-1.58848,1.06319-3.05054,1.5945-4.53533.55245-1.54392,1.134-3.0774,1.694-4.61867.54244-1.49308,1.0736-2.99026,1.65642-4.616C123.87846,38.62994,125.442,43.12333,127.05161,47.74911Z"/>
    <path class="q" d="M218.45171,47.724h-9.59512c.06359-.83018,4.09394-12.1297,4.85227-13.60049C215.29154,38.662,216.85732,43.15194,218.45171,47.724Z"/>
    <path class="s" d="M308.42146,71.03922c2.18819,0,4.26047-.03813,6.3306.01256a2.50654,2.50654,0,0,1,2.533,2.68768,4.81615,4.81615,0,0,1-.0948,1.29857,2.18193,2.18193,0,0,1-1.55406,1.622,7.46127,7.46127,0,0,1-1.71727.34541c-1.55587.04807-3.1142.02592-4.67145.01465-.74678-.0054-.817-.0748-.82228-.82247C308.41331,74.52423,308.42146,72.85066,308.42146,71.03922Z"/>
    <path class="n" d="M48.271,46.89018c-1.04487-.33092-1.93562-.59294-2.81222-.896-.99806-.345-1.99394-.70112-2.97033-1.10219a2.087,2.087,0,0,0-1.56793.03326c-2.1387.754-4.27509,1.5146-6.41442,2.26682a5.754,5.754,0,0,1-.6548.13858,2.47621,2.47621,0,0,1,.40636-1.12485c.21479-.46076.40527-.93453.57785-1.41294a1.62774,1.62774,0,0,0-.3959-2.027,2.03769,2.03769,0,0,0-2.22338.00774c-.09516.06108-.19153.12028-.33976.21322L24.86282,34.0534a4.69885,4.69885,0,0,1,.71439-.41154q5.20117-1.82682,10.40994-3.632c1.736-.6018,3.48416-1.16905,5.21192-1.79315a1.39421,1.39421,0,0,1,1.021-.02165c2.94958,1.04175,5.90447,2.06848,8.85511,3.10724.10439.03675.18129.15159.24934.21109C47.06554,35.92008,45.66878,40.8935,48.271,46.89018Z"/>
    <path class="l" d="M58.04,30.5358c-.93036.71343-1.86553,1.37136-2.7325,2.1094a11.31108,11.31108,0,0,0-2.69826,4.007,19.0816,19.0816,0,0,0-1.45853,5.42366,9.48552,9.48552,0,0,0,.33368,3.28792,10.9462,10.9462,0,0,0,.56027,1.78551,7.109,7.109,0,0,0,4.20412,4.01823c.12334-.15216.3005-.28062.352-.44781.75994-2.46486,1.49918-4.9361,2.25215-7.40313.34828-1.1411.71562-2.27639,1.11561-3.54531a11.01613,11.01613,0,0,0-1.2626.56718,1.25651,1.25651,0,0,0-.38409.559c-.113.24716-.16613.52088-.26.77768a8.23521,8.23521,0,0,1-4.934,4.82475,3.96242,3.96242,0,0,1-1.0841.07907,3.45421,3.45421,0,0,1,.45486-.50988,5.911,5.911,0,0,0,2.25578-3.48206c.35575-1.23759.859-2.432,1.25244-3.65978.34481-1.07617.62747-2.17224.95112-3.307-.64974-.23409-1.11011.15923-1.612.29053-.6428.16815-.76217.14161-1.08184-.35979-.03617-.05674-.00489-.15646-.00489-.274.31369-.51376.9358-.498,1.41975-.66762,2.58188-.90489,5.18643-1.74512,7.7836-2.60635.29594-.09814.59471-.18774,1.01774-.3208.20747.29974.47126.62648.67524.98706a4.44987,4.44987,0,0,0,1.62079,1.69444,2.889,2.889,0,0,0,1.6858.45991c.50871-.02916,1.02043-.00594,1.69745-.00594-.19115.23267-.26575.4059-.39376.46673q-2.28571,1.08624-4.58608,2.14161c-.91828.42254-1.8447.82739-2.94749,1.32072a6.85213,6.85213,0,0,1,5.187,3.76881,6.6744,6.6744,0,0,1-1.31662,7.9419,7.87823,7.87823,0,0,1-7.39077,2.19088,14.64008,14.64008,0,0,1-4.03715-1.19356,11.94534,11.94534,0,0,1-4.13856-3.53408A9.80069,9.80069,0,0,1,48.40071,43.508a11.03305,11.03305,0,0,1,2.1-9.164,10.332,10.332,0,0,1,5.621-3.70078,14.306,14.306,0,0,1,1.48077-.34056C57.74753,30.28126,57.92351,30.46948,58.04,30.5358ZM63.16476,49.993c-.79512-2.246-2.30445-2.91518-4.56367-2.09946-.19691,1.30457-.91521,2.50608-1.02375,3.92036A7.68578,7.68578,0,0,0,63.16476,49.993Zm-2.96494-7.25081c.24731.26533.42328.48352.62851.6694a3.428,3.428,0,0,0,3.54076.51766c.33449-.16478.51141-.39617.4097-.75248a6.0283,6.0283,0,0,0-2.04526-3.3548,1.69941,1.69941,0,0,0-1.467-.44934Zm.33982-8.536L59.08477,38.925c.89062-.19272,1.53291-.4553,1.72356-1.41154a18.71907,18.71907,0,0,1,.70734-2.19226h.956l-.34005,2.12168a14.3823,14.3823,0,0,0,4.28541-1.84711,6.90612,6.90612,0,0,1-3.58222-1.81431,1.00281,1.00281,0,0,0-.753-.13579A14.67992,14.67992,0,0,0,60.53964,34.20619ZM59.852,44.43036a4.84657,4.84657,0,0,0-.57149,2.1157,5.24123,5.24123,0,0,1,2.68581.42089A6.59745,6.59745,0,0,1,63.7534,49.0062c.8111-1.105.88235-2.37,1.29164-3.568a12.05387,12.05387,0,0,1-2.72261.07693A11.92166,11.92166,0,0,1,59.852,44.43036Z"/>
    <path class="t" d="M18.69943,36.14183v-.77014c-.10172-.03435-.21112-.11182-.307-.09767a9.24879,9.24879,0,0,0-4.96081,2.27385c-.563.50741-1.076,1.07083-1.60328,1.617-.22167.22961-.4367.34837-.74793.04384a8.98823,8.98823,0,0,1,5.85023-6.55947c.65483-.253,1.31159-.501,1.94652-.74335l.33855-2.77733a4.73077,4.73077,0,0,1,.71676.55054q1.75083,2.10144,3.47262,4.227c1.19384,1.4772,2.3659,2.972,3.55543,4.45266q2.4552,3.05618,4.92228,6.10282c.10039.1244.20272.24723.34849.4248.13232-.21107.2288-.35159.31186-.49962.54319-.96808.69643-.976,1.54314-.03133l-2.26854,4.51327A16.085,16.085,0,0,1,29.16285,45.865c-.80786-.97587-1.61678-1.95086-2.50268-3.01968L19.4923,45.4418l-.30143,1.49109,3.28564,1.33959c.18059-.31787.38045-.68223.59268-1.03923.17288-.29082.40183-.51276.77531-.39241a.77292.77292,0,0,1,.4.90555.46012.46012,0,0,1-.028.11391c-.736,1.42954-1.47344,2.85836-2.25592,4.37493a7.38742,7.38742,0,0,1-.76821-.45412,9.57694,9.57694,0,0,0-3.59071-1.96,3.92675,3.92675,0,0,0-2.98119.269,3.11221,3.11221,0,0,0-.64082,4.81012,6.93509,6.93509,0,0,0,2.1012,1.73452,1.756,1.756,0,0,1,.5119.28511.78537.78537,0,0,1,.15195.50552c-.00075.05034-.25919.12865-.402.13449-.10375.00425-.20963-.09421-.31778-.13912a8.16758,8.16758,0,0,1-3.41968-2.49548A3.93387,3.93387,0,0,1,12.55,49.529a6.06617,6.06617,0,0,1,4.52529-2.51081c.64569-.04744.86583-.31647.907-1.006.09693-1.62411.18374-3.24882.28227-4.87283a7.18513,7.18513,0,0,1,.11022-.81521c.1-.564-.04782-.70041-.58864-.63382A9.4425,9.4425,0,0,0,13.33655,41.424a1.77135,1.77135,0,0,1-.53489.13219,1.90351,1.90351,0,0,1,.01082-.69084,8.8876,8.8876,0,0,1,4.77335-4.3705,5.75958,5.75958,0,0,1,.55049-.20421C18.31729,36.23329,18.50362,36.19281,18.69943,36.14183Zm5.5852,3.6705c-1.41234-1.61666-2.58081-3.2905-4.05381-4.84266l-.47964,6.5543Z"/>
    <path class="u" d="M32.56268,73.02043c-.87354.56626-1.6316.99433-2.31566,1.5189a1.47729,1.47729,0,0,1-1.94728.00541,11.14378,11.14378,0,0,0-2.18995-1.11443c-1.34306-.5004-2.19666-.17729-2.6735.88773a2.34063,2.34063,0,0,0,1.1494,2.99408c.33857.17142.69039.31665,1.12392.51379-1.57387.35872-2.715-.35857-3.487-1.92362a3.77193,3.77193,0,0,1,1.52392-4.77543c0-2.43746.02269-4.91188-.00844-7.38561a2.14426,2.14426,0,0,0-2.96035-1.91908c-.33324.12654-.62306.54866-1.13192.23351a3.534,3.534,0,0,1,2.2677-1.71643,3.325,3.325,0,0,1,2.831.0997,3.13289,3.13289,0,0,1,1.61588,2.825c.02572,2.43915.00763,4.87876.00763,7.34973a1.76835,1.76835,0,0,0,1.45248.42606c.01763-.31893.04891-.62621.04936-.93352q.00584-4.01915.00161-8.03828c-.0002-.42937-.075-.88751.43166-1.08953.48411.13056.50514.47184.50214.8496-.00955,1.19966-.00353,2.39945-.00353,3.5992v1.223h3.59835c0-1.29124.00278-2.56018-.00156-3.82908-.00146-.4291-.261-.56979-.65118-.70572-.74245-.25866-.7583-.57638-.19507-1.08725.75858-.68806,1.43743-1.05963,2.49282-.36049a19.52419,19.52419,0,0,0,3.19949,1.39423c-.43194.578-.54191,1.37209-1.51172,1.333,0,2.68757-.01664,5.31977.00895,7.95155.00906.93225.27652,1.06747,1.23121.79142a6.93951,6.93951,0,0,1,.81278-.11645,2.71168,2.71168,0,0,1-.38386.6147c-.68371.5368-1.37027,1.073-2.08748,1.563a1.076,1.076,0,0,1-1.40849-.097C33.47913,73.75876,33.05268,73.415,32.56268,73.02043Zm.07287-5.745H29.05848v4.08816a4.26624,4.26624,0,0,0,2.19173,1.57611,3.1623,3.1623,0,0,0,.62931-.29724,1.60149,1.60149,0,0,0,.78-1.48853C32.57354,69.88813,32.63555,68.61232,32.63555,67.27539Z"/>
    <path class="u" d="M56.66372,59.90021c.181.26928.39485.45514.43846.6748a2.5258,2.5258,0,0,1-1.13051,2.57217c-1.25512,1.00262-1.266,1.01481-.14,2.13016a2.445,2.445,0,0,1,.8011,1.89841c-.03164,1.23781-.01251,2.4771-.005,3.71571.00687,1.13293.30068,1.47914,1.53995,1.85834.3801-.21356.3787-.56956.37691-.93921-.00679-1.39844.009-2.79712-.01294-4.19524a1.3857,1.3857,0,0,0-.23632-.74807c-.2429-.33645-.48537.08347-.73732.07436a3.54543,3.54543,0,0,1-.53739-.12023,5.677,5.677,0,0,1,2.13827-1.85205c.52778.39666,1.052.7437,1.51252,1.161a.85065.85065,0,0,1,.26462.71142,7.8813,7.8813,0,0,0-.21507,2.82979c-.03241.79684-.00667,1.59606-.00667,2.49757L57.71442,74.405l-3.46853-1.5672c0-1.961-.02589-3.91248.01236-5.86268a4.53725,4.53725,0,0,0-.50424-2.27207c-.5105-.97571-.36019-1.5191.52314-2.232.27583-.22262.56484-.43009.85724-.63078A2.79113,2.79113,0,0,0,56.66372,59.90021Z"/>
    <path class="l" d="M39.14779,73.01767c0-1.53923.00134-3.01523-.00041-4.49123-.00143-1.203-.00307-1.203-1.24648-1.47786a1.77316,1.77316,0,0,1,.245-.59834,11.25468,11.25468,0,0,1,1.16423-1.00954.789.789,0,0,1,1.15036.16712c.32688.38885.6359.79271,1.01209,1.26441l2.86618-1.81582c1.06127.36176,1.63972,1.31737,2.3862,1.9518-.06014.5354-.14643.99431-.15637,1.45488-.02239,1.03743-.02,2.07589-.0029,3.11353.0141.85517.19087.956,1.10522.71037a1.2047,1.2047,0,0,1,.32866.04134c-.05645.21358-.0489.47178-.17417.60606a4.67135,4.67135,0,0,1-1.30594,1.18814c-.61837.2755-1.01594-.469-1.55078-.68637a4.26086,4.26086,0,0,1-.8177-.56637,21.00179,21.00179,0,0,0,.21958-4.84339c.01391-.4368-.337-.84726-.959-1.34135L41.718,67.696c0,1.38177-.0116,2.69312.00387,4.00415.01131.9592.28926,1.20936,1.30669,1.25529.19162.00864.38295.02344.5994.037-.634,1.40647-1.65246,1.74772-2.81848,1.01335C40.2799,73.67218,39.7338,73.36493,39.14779,73.01767Z"/>
    <path class="b" d="M52.58553,72.67521,50.644,74.2164l-1.86038-1.52647c.80543-.5224.65556-1.23983.65846-1.916q.00615-1.43621-.00081-2.87248c-.00154-.304.05586-.58659-.35105-.7801-.2794-.13286-.14914-.47273.08473-.69424,1.27864-1.211,1.6515-1.21136,2.944-.00492.236.22029.36961.54968.08644.6904-.39843.198-.34068.47967-.342.78149q-.007,1.61575-.00049,3.23155C51.86558,71.70639,51.68235,72.3455,52.58553,72.67521Z"/>
    <path class="j" d="M50.66282,62.37911a1.37267,1.37267,0,0,1,1.39747,1.28965,1.425,1.425,0,0,1-1.34836,1.36658,1.48122,1.48122,0,0,1-1.47666-1.3778A1.42423,1.42423,0,0,1,50.66282,62.37911Z"/>
    <path class="v" d="M63.10817,72.201A1.25,1.25,0,0,1,62.075,73.42112a1.21339,1.21339,0,0,1-1.10525-1.14928,1.23336,1.23336,0,0,1,1.03258-1.2145A1.19641,1.19641,0,0,1,63.10817,72.201Z"/>
    <path class="w" d="M63.16476,49.993a7.68578,7.68578,0,0,1-5.58742,1.8209c.10854-1.41428.82684-2.61579,1.02375-3.92036C60.86031,47.0778,62.36964,47.747,63.16476,49.993Z"/>
    <path class="w" d="M60.19982,42.74217l1.06669-3.36956a1.69941,1.69941,0,0,1,1.467.44934,6.0283,6.0283,0,0,1,2.04526,3.3548c.10171.35631-.07521.5877-.4097.75248a3.428,3.428,0,0,1-3.54076-.51766C60.6231,43.22569,60.44713,43.0075,60.19982,42.74217Z"/>
    <path class="x" d="M60.53964,34.20619a14.67992,14.67992,0,0,1,1.54223-.56054,1.00281,1.00281,0,0,1,.753.13579,6.90612,6.90612,0,0,0,3.58222,1.81431,14.3823,14.3823,0,0,1-4.28541,1.84711l.34005-2.12168h-.956a18.71907,18.71907,0,0,0-.70734,2.19226c-.19065.95624-.83294,1.21882-1.72356,1.41154Z"/>
    <path class="x" d="M59.852,44.43036a11.92166,11.92166,0,0,0,2.47046,1.0848,12.05387,12.05387,0,0,0,2.72261-.07693c-.40929,1.198-.48054,2.46292-1.29164,3.568A6.59745,6.59745,0,0,0,61.96629,46.967a5.24123,5.24123,0,0,0-2.68581-.42089A4.84657,4.84657,0,0,1,59.852,44.43036Z"/>
    <path class="y" d="M24.28463,39.81233,19.75118,41.524l.47964-6.5543C21.70382,36.52183,22.87229,38.19567,24.28463,39.81233Z"/>
    <path class="w" d="M32.63555,67.27539c0,1.33693-.062,2.61274.024,3.8785a1.60149,1.60149,0,0,1-.78,1.48853,3.1623,3.1623,0,0,1-.62931.29724,4.26624,4.26624,0,0,1-2.19173-1.57611V67.27539Z"/>
  </g>
</svg>
